<svg version="1.1" viewBox="0.0 0.0 32.0 32.0" fill="none" stroke="none" stroke-linecap="square" stroke-miterlimit="10" xmlns:xlink="http://www.w3.org/1999/xlink" xmlns="http://www.w3.org/2000/svg">
    <clipPath id="p.0">
        <path d="m0 0l32.0 0l0 32.0l-32.0 0l0 -32.0z" clip-rule="nonzero" />
    </clipPath>
    <g clip-path="url(#p.0)">
        <path fill="#000000" fill-opacity="0.0" d="m0 0l32.0 0l0 32.0l-32.0 0z" fill-rule="evenodd" />
        <path fill="#ff0000" d="m0.28346458 16.0l0 0c0 -8.680002 7.036533 -15.716536 15.716536 -15.716536l0 0c4.1682835 0 8.165846 1.6558446 11.113268 4.6032667c2.947424 2.947422 4.6032677 6.9449844 4.6032677 11.113269l0 0c0 8.680002 -7.0365334 15.716536 -15.716536 15.716536l0 0c-8.680002 0 -15.716536 -7.0365334 -15.716536 -15.716536zm24.365257 4.6570034c2.056572 -3.8193455 1.3643913 -8.535477 -1.7029285 -11.602797c-3.0673199 -3.067319 -7.78345 -3.7595 -11.6027975 -1.702929zm-17.297443 -9.314008l0 0c-2.056571 3.8193474 -1.3643899 8.535478 1.702929 11.6027975c3.0673199 3.0673199 7.783451 3.7595005 11.602797 1.7029285z" fill-rule="evenodd" />
        <path stroke="#000000" stroke-width="1.0" stroke-linejoin="round" stroke-linecap="butt" d="m0.28346458 16.0l0 0c0 -8.680002 7.036533 -15.716536 15.716536 -15.716536l0 0c4.1682835 0 8.165846 1.6558446 11.113268 4.6032667c2.947424 2.947422 4.6032677 6.9449844 4.6032677 11.113269l0 0c0 8.680002 -7.0365334 15.716536 -15.716536 15.716536l0 0c-8.680002 0 -15.716536 -7.0365334 -15.716536 -15.716536zm24.365257 4.6570034c2.056572 -3.8193455 1.3643913 -8.535477 -1.7029285 -11.602797c-3.0673199 -3.067319 -7.78345 -3.7595 -11.6027975 -1.702929zm-17.297443 -9.314008l0 0c-2.056571 3.8193474 -1.3643899 8.535478 1.702929 11.6027975c3.0673199 3.0673199 7.783451 3.7595005 11.602797 1.7029285z" fill-rule="evenodd" />
    </g>
</svg>